<svg xmlns="http://www.w3.org/2000/svg" width="16" height="17" fill="none" viewBox="0 0 16 17"><path fill="#000" d="M8 15A6.5 6.5 0 1 1 8 2a6.5 6.5 0 0 1 0 13M8 3a5.5 5.5 0 1 0 0 11A5.5 5.5 0 0 0 8 3m1.873 6.053a1.3 1.3 0 0 0-.345-.43 2 2 0 0 0-.5-.295 3.4 3.4 0 0 0-.57-.185L8.29 8.1V6.648q.224.034.413.16a.7.7 0 0 1 .297.52h.908a1.36 1.36 0 0 0-.25-.78A1.6 1.6 0 0 0 9 6.015a2.1 2.1 0 0 0-.71-.18V5.25h-.512v.595q-.367.03-.703.178c-.272.114-.51.3-.685.537a1.34 1.34 0 0 0-.25.808 1.16 1.16 0 0 0 .36.882 2.35 2.35 0 0 0 1.018.5l.23.057v1.54a1.4 1.4 0 0 1-.266-.067.9.9 0 0 1-.385-.27.78.78 0 0 1-.167-.455H6c.004.314.097.62.27.883.174.25.416.445.698.562.247.1.508.158.774.175l.008.575h.54v-.575c.275-.013.545-.072.8-.175.273-.112.507-.3.675-.543.161-.24.243-.525.235-.815a1.3 1.3 0 0 0-.127-.59m-2.21-1.128a1.4 1.4 0 0 1-.288-.138.7.7 0 0 1-.205-.202.59.59 0 0 1 .037-.633.75.75 0 0 1 .325-.25 1 1 0 0 1 .238-.067v1.31a.3.3 0 0 1-.107-.02m1.25 2.1a.85.85 0 0 1-.366.25 1.3 1.3 0 0 1-.27.07V8.953q.17.052.316.112c.123.05.235.126.327.223a.5.5 0 0 1 .117.337.6.6 0 0 1-.117.4z"/></svg>