<svg xmlns="http://www.w3.org/2000/svg" width="64" height="64" fill="none" viewBox="0 0 64 64"><g fill="#f6821f" clip-path="url(#clip0_1_19)"><path fill-rule="evenodd" d="M60 34H32v-4h28z" clip-rule="evenodd"/><path fill-rule="evenodd" d="m59.38 32-4.869-4.869 2.263-2.262L63.905 32l-7.131 7.131-2.263-2.262z" clip-rule="evenodd"/><path d="M13.212 17.863c-.927 2.433-1.63 5.573-1.975 9.137H7.22c.36-4.015 1.145-7.65 2.254-10.561.775-2.034 1.746-3.817 2.926-5.127S15.13 9 17 9h25c1.87 0 3.42 1.002 4.6 2.312s2.151 3.093 2.926 5.127C50.635 19.35 51.42 22.985 51.78 27h-4.017c-.346-3.564-1.048-6.704-1.975-9.137-.673-1.767-1.426-3.06-2.16-3.874C42.893 13.173 42.34 13 42 13H22.857c.634 1.015 1.189 2.179 1.669 3.439C26.08 20.519 27 26.022 27 32s-.92 11.48-2.474 15.561c-.48 1.26-1.035 2.424-1.67 3.439H42c.34 0 .893-.173 1.628-.989.734-.815 1.487-2.107 2.16-3.874.927-2.433 1.63-5.573 1.975-9.137h4.017c-.36 4.015-1.145 7.65-2.254 10.561-.775 2.034-1.746 3.817-2.926 5.127S43.87 55 42 55H17c-1.87 0-3.42-1.002-4.6-2.312s-2.151-3.093-2.926-5.127C8.365 44.65 7.58 41.015 7.22 37h4.017c.345 3.564 1.048 6.704 1.975 9.137.673 1.767 1.426 3.06 2.16 3.874.735.816 1.288.989 1.628.989s.893-.173 1.628-.989c.734-.815 1.487-2.107 2.16-3.874C22.128 42.617 23 37.62 23 32s-.871-10.617-2.212-14.137c-.673-1.767-1.426-3.06-2.16-3.874C17.893 13.173 17.34 13 17 13s-.893.173-1.628.989c-.734.815-1.487 2.107-2.16 3.874M0 32.25a2.25 2.25 0 1 0 4.5 0 2.25 2.25 0 0 0-4.5 0"/><path d="M7 32.25a2.25 2.25 0 1 0 4.5 0 2.25 2.25 0 0 0-4.5 0m7 0a2.25 2.25 0 1 0 4.5 0 2.25 2.25 0 0 0-4.5 0"/></g><defs><clipPath id="clip0_1_19"><path fill="#fff" d="M0 0h64v64H0z"/></clipPath></defs></svg>